<svg version="1" xmlns="http://www.w3.org/2000/svg" width="933.333" height="933.333" viewBox="0 0 700.000000 700.000000"><path d="M27 245.4V374h51.3c57.1 0 62.1-.4 80-6.4 13-4.5 24.3-11.4 34.2-21.1 14.7-14.3 23.2-29.9 29-52.5 4.1-16.4 5-25.1 5-49.5 0-19.2-.4-25-2.2-35-5.3-29.3-16.4-51.2-34.1-67.5-11.4-10.6-25.9-18.1-42.8-22.2-8.5-2-11.7-2.2-64.6-2.5l-55.8-.4v128.5zm109-89.8c21 4.9 36.1 19.6 42.9 41.7 3.3 10.9 4.4 27.3 3.8 56.7-.4 18.2-1.1 28.6-2.1 33.1-5.9 25.8-20.8 41.9-44.2 47.9-6.8 1.8-11.1 2-37.6 2H69V154h30.3c23.5 0 31.6.4 36.7 1.6zM334.5 118.2c-.3.7-18.5 54.2-40.5 118.8s-41.6 121.9-43.5 127.2l-3.4 9.8h42.5l4.1-12.8c2.3-7 7.4-22.7 11.3-35l7.2-22.2 48.1.2 48 .3 11.6 34.7 11.6 34.8h43.4l-12.4-36.8c-6.9-20.2-26.6-78-43.8-128.4L387.5 117h-26.3c-20.1 0-26.4.3-26.7 1.2zm45.1 93.9c10.1 31 18.4 56.5 18.4 56.6 0 .2-17.1.3-38.1.3-30.1 0-38-.3-37.6-1.3 1.2-3.4 36.7-111.7 36.7-112.2 0-.4.5-.5 1.2-.3.6.2 9.4 25.8 19.4 56.9zM347.5 407.6c-30.1 3.5-50.5 12.9-67.2 30.8-10.8 11.4-17.8 23.5-23.7 40.5-14.7 42.1-12 101.7 6.3 138.1 15 30 40.1 48.8 73 54.5 10.9 1.9 33.4 1.9 44.6 0 42.3-7.4 71.8-36.8 83-82.8 6.7-27.2 7.3-62.6 1.5-90.5-9.6-46.4-36.6-77.2-76.2-87.1-13.3-3.4-30.1-4.7-41.3-3.5zm29.5 39.5c24 6.6 39.9 25.1 45.5 52.5 1.4 6.9 1.6 13.7 1.3 44.5-.4 34.1-.6 36.9-2.6 43.7-9.1 30-30 46.7-59.9 48-36.8 1.5-62.4-20.6-68.4-58.9-.7-4.4-.9-19.5-.6-41.2.4-38.8.7-40.5 8.4-56.6 7.8-16.2 21.4-27.6 38.5-32.1 10.5-2.7 27.8-2.7 37.8.1zM27 540.5V669h42V567h33.3c36.6 0 51.1-1 61.4-4.1 24.4-7.5 40-24.5 46.5-50.8 2.9-11.4 3.1-32.9.5-44.3-5.7-24.4-19-41.3-39.5-49.8-13.8-5.8-16.4-6-83.2-6H27v128.5zm123.1-90.1c6.6 2.5 12.3 7.7 15.6 14.4 2.8 5.6 2.8 5.9 2.8 24.2 0 17.3-.2 18.8-2.4 23.7-2.7 6.1-8.4 11.6-15 14.7-4.4 2-6.2 2.1-43.3 2.4l-38.8.3v-82.2l38.3.3c33.4.3 38.8.6 42.8 2.2zM491 430.5V449h76v220h42V449l38.3-.2 38.2-.3.3-18.3.2-18.2H491v18.5z"/></svg>